<?xml version="1.0" standalone="no"?>
<!DOCTYPE svg PUBLIC "-//W3C//DTD SVG 20010904//EN"
 "http://www.w3.org/TR/2001/REC-SVG-20010904/DTD/svg10.dtd">
<svg version="1.0" xmlns="http://www.w3.org/2000/svg"
 width="700.000000pt" height="466.000000pt" viewBox="0 0 700.000000 466.000000"
 preserveAspectRatio="xMidYMid meet">

<g transform="translate(0.000000,466.000000) scale(0.100000,-0.100000)"
fill="#000000" stroke="none">
<path d="M6359 2873 c-51 -13 -66 -25 -169 -128 -63 -63 -112 -117 -109 -119
3 -3 52 3 110 15 57 11 133 21 169 22 l65 2 6 -140 c4 -77 7 -150 8 -162 2
-34 12 -28 56 34 22 31 65 87 96 124 48 58 57 76 63 121 8 63 -7 161 -29 195
-35 52 -147 67 -266 36z"/>
<path d="M1590 2358 l0 -413 50 0 c48 0 50 1 50 27 l0 28 45 -32 c38 -27 57
-33 113 -36 58 -3 74 0 122 25 61 31 111 95 131 166 20 70 15 203 -10 269 -61
160 -238 217 -363 118 l-28 -21 0 140 0 141 -55 0 -55 0 0 -412z m331 81 c58
-29 83 -88 84 -194 0 -139 -58 -215 -166 -215 -52 0 -106 30 -126 70 -8 16
-13 69 -13 145 0 100 3 125 19 151 38 62 128 81 202 43z"/>
<path d="M2200 2710 l0 -60 60 0 60 0 0 60 0 60 -60 0 -60 0 0 -60z"/>
<path d="M3042 2358 l3 -411 53 -3 52 -3 0 202 c0 172 3 207 18 237 42 85 151
106 215 41 l32 -31 3 -223 3 -222 54 0 55 0 0 220 c0 121 -5 237 -10 257 -23
81 -103 138 -195 138 -51 0 -124 -27 -157 -57 -17 -15 -18 -9 -18 125 l0 142
-55 0 -55 0 2 -412z"/>
<path d="M5260 2628 c0 -134 -1 -140 -18 -125 -9 9 -38 25 -62 36 -129 59
-280 -21 -325 -171 -29 -98 -13 -254 33 -327 78 -123 234 -146 361 -54 23 17
23 17 18 -2 -10 -30 4 -40 56 -40 l47 0 0 413 0 412 -55 0 -55 0 0 -142z m-80
-186 c20 -9 44 -34 57 -57 31 -56 33 -225 3 -284 -35 -70 -142 -94 -211 -48
-57 39 -80 92 -80 191 0 89 17 141 58 178 44 40 117 49 173 20z"/>
<path d="M332 2344 l3 -399 45 1 c25 1 50 2 55 3 6 1 10 59 10 153 l0 153 115
0 c181 0 209 -26 213 -203 l2 -102 53 0 52 0 1 48 c5 158 -9 214 -65 268 l-43
41 36 19 c67 36 108 127 95 212 -9 63 -26 93 -73 134 -62 53 -95 60 -309 65
l-192 5 2 -398z m393 272 c47 -20 68 -65 63 -132 -8 -99 -53 -124 -227 -124
l-119 0 0 135 1 135 124 0 c84 0 134 -5 158 -14z"/>
<path d="M6180 2594 c-69 -13 -130 -24 -137 -24 -13 0 -133 -146 -201 -246
l-42 -60 21 -110 20 -110 -34 -115 c-20 -63 -43 -144 -52 -179 -9 -36 -18 -73
-21 -82 -4 -14 0 -18 18 -18 20 0 27 9 42 53 84 239 303 619 476 827 76 92 75
90 54 89 -11 0 -75 -11 -144 -25z"/>
<path d="M6304 2493 c-91 -116 -149 -198 -216 -308 -57 -93 -158 -277 -158
-288 0 -3 28 5 63 18 34 13 106 39 160 57 l97 32 76 133 76 132 -11 152 c-6
83 -12 153 -14 156 -2 2 -35 -36 -73 -84z"/>
<path d="M1136 2540 c-175 -68 -233 -328 -114 -506 90 -133 307 -141 407 -15
85 107 94 311 19 425 -26 39 -92 89 -137 105 -50 16 -119 13 -175 -9z m159
-94 c70 -30 110 -140 92 -256 -16 -107 -65 -155 -157 -155 -70 0 -105 21 -135
81 -24 48 -32 167 -15 221 34 104 121 148 215 109z"/>
<path d="M2635 2544 c-21 -8 -49 -24 -61 -35 l-22 -21 -4 28 c-3 27 -5 29 -53
28 l-50 -1 -3 -300 -2 -300 55 1 55 1 0 203 c0 235 6 259 69 291 69 36 133 24
175 -32 19 -26 21 -45 26 -244 l5 -216 53 -3 53 -3 -3 237 c-3 231 -4 238 -28
282 -47 84 -164 121 -265 84z"/>
<path d="M3794 2544 c-129 -47 -201 -197 -174 -367 24 -153 124 -247 265 -247
103 0 184 50 232 144 22 41 28 69 31 142 7 156 -40 261 -142 313 -60 31 -152
38 -212 15z m167 -107 c102 -68 118 -265 30 -360 -33 -35 -44 -41 -92 -44 -69
-5 -115 18 -148 77 -28 50 -39 154 -22 216 30 113 147 169 232 111z"/>
<path d="M4406 2544 c-93 -34 -156 -118 -176 -235 -19 -114 17 -245 87 -311
65 -61 172 -84 267 -56 64 19 140 101 162 174 23 78 23 184 -1 259 -45 141
-202 220 -339 169z m147 -95 c91 -47 129 -170 92 -295 -24 -81 -76 -124 -150
-124 -91 0 -145 59 -160 177 -9 62 9 153 37 189 46 57 126 81 181 53z"/>
<path d="M2210 2239 l0 -301 53 4 52 3 3 298 2 297 -55 0 -55 0 0 -301z"/>
<path d="M6006 1876 c-48 -19 -92 -38 -96 -43 -9 -9 -41 -83 -36 -83 19 0 220
107 231 123 33 47 19 47 -99 3z"/>
</g>
</svg>
